<svg width="256" height="256" viewBox="0 0 256 256" fill="none" xmlns="http://www.w3.org/2000/svg">
<circle cx="128" cy="128" r="128" fill="black"/>
<path d="M194.423 128C208.752 118.18 213.327 98.8061 204.499 83.4985C195.67 68.1939 176.623 62.4704 160.961 69.9853L141.007 81.3996C141.219 82.364 141.329 83.3612 141.329 84.3853V104.025L147.232 100.612L158.318 94.2051C159.204 93.6916 160.126 93.2885 161.062 92.9959C164.683 91.8405 168.564 92.2615 171.809 94.0111C173.989 95.1874 175.88 96.9639 177.21 99.2688C178.541 101.577 179.131 104.106 179.06 106.584C178.952 110.268 177.374 113.845 174.568 116.41C173.843 117.072 173.035 117.667 172.149 118.18L161.062 124.587L155.157 128L161.062 131.413L172.149 137.82C173.035 138.333 173.843 138.928 174.568 139.59C177.374 142.155 178.952 145.732 179.06 149.416C179.131 151.894 178.541 154.423 177.21 156.728C175.88 159.036 173.989 160.813 171.809 161.989C168.564 163.739 164.683 164.16 161.062 163.004C160.126 162.711 159.204 162.308 158.318 161.795L147.232 155.388L141.329 151.975V171.615C141.329 172.639 141.219 173.636 141.004 174.597C140.193 178.315 137.887 181.47 134.752 183.405C132.644 184.707 130.159 185.459 127.501 185.459C124.844 185.459 122.356 184.707 120.248 183.405C119.308 182.823 118.44 182.133 117.668 181.351L95.6289 193.96C100.046 207.341 112.648 217 127.501 217C145.159 217 159.634 203.347 160.961 186.015C176.623 193.53 195.67 187.806 204.499 172.499C213.327 157.194 208.752 137.82 194.423 128ZM113.671 171.615V151.975L107.768 155.388L96.6817 161.795C95.7959 162.308 94.8743 162.711 93.9377 163.007C90.3168 164.16 86.4333 163.739 83.1912 161.986C81.0109 160.81 79.1199 159.033 77.7896 156.728C76.4623 154.423 75.8688 151.897 75.9404 149.419C76.0478 145.729 77.6256 142.155 80.4323 139.59C81.157 138.928 81.9653 138.33 82.8512 137.82L93.9377 131.413L99.8434 128L93.9377 124.587L82.8512 118.18C81.9653 117.67 81.157 117.072 80.4323 116.41C77.6256 113.845 76.0478 110.271 75.9404 106.581C75.8688 104.103 76.4623 101.577 77.7926 99.2718C79.1199 96.9669 81.0109 95.1904 83.1912 94.0141C86.4333 92.2615 90.3168 91.8405 93.9377 92.993C94.8743 93.2885 95.7959 93.6916 96.6817 94.2051L107.768 100.612L113.671 104.025V84.3853C113.671 83.3612 113.781 82.364 113.993 81.4026C114.807 77.6854 117.113 74.5295 120.251 72.5948C122.359 71.2931 124.841 70.5437 127.501 70.5437C130.162 70.5437 132.641 71.2931 134.749 72.5948C135.692 73.177 136.56 73.8667 137.332 74.649L159.371 62.0405C154.954 48.6587 142.352 39 127.501 39C109.841 39 95.3664 52.6535 94.0391 69.9853C78.3772 62.4704 59.33 68.1939 50.5013 83.4985C41.6727 98.8061 46.2481 118.18 60.5767 128C46.2481 137.82 41.6727 157.194 50.5013 172.499C59.33 187.806 78.3772 193.53 94.0391 186.015L113.996 174.597C113.781 173.636 113.671 172.639 113.671 171.615Z" fill="white"/>
</svg>
